# xmcd CD database file
#
# Track frame offsets:
#	150
#	14668
#	24696
#	41771
#	69357
#	86944
#	101015
#	114233
#	131148
#	142290
#
# Disc length: 2031 seconds
#
# Revision: 1
# Processed by: cddbd v1.5.2PL0 Copyright (c) Steve Scherf et al.
# Submitted via: CDex 1.51
#
DISCID=9407ed0a
DTITLE=Crossfyre - Southbound
DYEAR=2010
DGENRE=Blues
TTITLE0=First Train To Texas
TTITLE1=Shuffle You
TTITLE2=Southbound
TTITLE3=Feels Like Rain
TTITLE4=Come Back Home
TTITLE5=Looking Back
TTITLE6=No Love
TTITLE7=City Of Angels
TTITLE8=Get Over You
TTITLE9=Big Fat Woman
EXTD=YEAR: 2010
EXTT0=
EXTT1=
EXTT2=
EXTT3=
EXTT4=
EXTT5=
EXTT6=
EXTT7=
EXTT8=
EXTT9=
PLAYORDER=
